P3
75 50
255
176 208 255
176 208 255
176 208 255
176 208 255
176 208 255
176 208 255
176 207 255
176 207 255
176 207 255
176 207 255
176 207 255
176 207 255
176 207 255
176 207 255
175 207 255
175 207 255
175 207 255
175 207 255
175 207 255
175 207 255
175 207 255
175 207 255
175 207 255
175 207 255
175 207 255
175 207 255
175 207 255
175 207 255
175 207 255
175 207 255
175 207 255
175 207 255
175 207 255
175 207 255
175 207 255
175 207 255
175 207 255
175 207 255
175 207 255
175 207 255
175 207 255
175 207 255
175 207 255
175 207 255
175 207 255
175 207 255
175 207 255
175 207 255
175 207 255
175 207 255
175 207 255
175 207 255
175 207 255
175 207 255
175 207 255
175 207 255
175 207 255
175 207 255
175 207 255
175 207 255
175 207 255
176 207 255
176 207 255
176 207 255
176 207 255
176 207 255
176 207 255
176 207 255
176 207 255
176 208 255
176 208 255
176 208 255
176 208 255
176 208 255
176 208 255
177 208 255
177 208 255
177 208 255
177 208 255
177 208 255
176 208 255
176 208 255
176 208 255
176 208 255
176 208 255
176 208 255
176 208 255
176 208 255
176 208 255
176 208 255
176 208 255
176 208 255
176 208 255
176 208 255
176 208 255
176 208 255
176 208 255
176 208 255
176 208 255
176 207 255
176 207 255
176 207 255
176 207 255
176 207 255
176 207 255
176 207 255
176 207 255
176 207 255
176 207 255
176 207 255
176 207 255
176 207 255
176 207 255
176 207 255
176 207 255
176 207 255
176 207 255
176 207 255
176 207 255
176 207 255
176 207 255
176 207 255
176 207 255
176 207 255
176 207 255
176 208 255
176 208 255
176 208 255
176 208 255
176 208 255
176 208 255
176 208 255
176 208 255
176 208 255
176 208 255
176 208 255
176 208 255
176 208 255
176 208 255
176 208 255
176 208 255
176 208 255
176 208 255
176 208 255
176 208 255
177 208 255
177 208 255
177 208 255
177 208 255
177 208 255
177 208 255
177 208 255
177 208 255
177 208 255
177 208 255
177 208 255
177 208 255
177 208 255
177 208 255
177 208 255
177 208 255
177 208 255
177 208 255
177 208 255
177 208 255
177 208 255
177 208 255
177 208 255
177 208 255
177 208 255
177 208 255
176 208 255
176 208 255
176 208 255
176 208 255
176 208 255
176 208 255
176 208 255
176 208 255
176 208 255
176 208 255
176 208 255
176 208 255
176 208 255
176 208 255
176 208 255
175 206 254
170 201 250
168 199 249
176 208 255
176 208 255
176 208 255
176 208 255
176 208 255
176 208 255
176 208 255
176 208 255
176 208 255
176 208 255
176 208 255
176 208 255
176 208 255
176 208 255
177 208 255
177 208 255
177 208 255
177 208 255
177 208 255
177 208 255
177 208 255
177 208 255
177 208 255
177 208 255
177 208 255
177 208 255
177 208 255
177 208 255
177 208 255
177 208 255
177 208 255
177 208 255
177 208 255
177 208 255
177 208 255
177 208 255
178 209 255
178 209 255
178 209 255
178 209 255
178 209 255
178 209 255
178 209 255
178 209 255
178 209 255
178 209 255
177 208 255
177 208 255
177 208 255
177 208 255
177 208 255
177 208 255
177 208 255
177 208 255
177 208 255
177 208 255
177 208 255
177 208 255
177 208 255
177 208 255
177 208 255
177 208 255
177 208 255
177 208 255
177 208 255
177 208 255
174 205 252
150 180 233
98 126 193
79 105 177
43 68 149
25 49 135
15 39 128
15 39 128
15 39 128
24 47 134
35 59 143
64 90 166
97 124 191
138 168 224
177 208 255
177 208 255
177 208 255
177 208 255
177 208 255
177 208 255
177 208 255
177 208 255
177 208 255
177 208 255
177 208 255
177 208 255
177 208 255
177 208 255
177 208 255
177 208 255
177 208 255
177 208 255
177 208 255
177 208 255
177 208 255
178 209 255
178 209 255
178 209 255
178 209 255
178 209 255
178 209 255
178 209 255
178 209 255
178 209 255
178 209 255
178 209 255
178 209 255
178 209 255
178 209 255
178 209 255
178 209 255
178 209 255
178 209 255
178 209 255
178 209 255
178 209 255
178 209 255
178 209 255
178 209 255
178 209 255
178 209 255
178 209 255
178 209 255
178 209 255
178 209 255
178 209 255
178 209 255
178 209 255
178 209 255
178 209 255
178 209 255
178 209 255
178 209 255
157 187 238
99 126 193
25 49 135
15 39 128
15 38 128
14 38 128
14 37 128
14 37 128
14 37 128
14 37 128
14 37 128
14 37 128
14 37 128
14 38 128
15 38 128
15 39 128
37 61 144
87 114 184
149 178 232
178 209 255
178 209 255
178 209 255
178 209 255
178 209 255
178 209 255
178 209 255
178 209 255
178 209 255
178 209 255
178 209 255
178 209 255
178 209 255
178 209 255
178 209 255
178 209 255
178 209 255
178 209 255
178 209 255
178 209 255
178 209 255
178 209 255
178 209 255
178 209 255
178 209 255
178 209 255
178 209 255
178 209 255
179 209 255
179 209 255
179 209 255
179 209 255
179 209 255
179 209 255
179 209 255
179 209 255
179 209 255
179 209 255
179 209 255
179 209 255
179 209 255
179 209 255
179 209 255
179 209 255
179 209 255
178 209 255
178 209 255
178 209 255
178 209 255
178 209 255
178 209 255
178 209 255
178 209 255
178 209 255
154 184 236
66 92 167
17 41 129
15 38 128
14 38 128
14 37 128
14 37 128
14 37 128
14 37 128
13 36 128
13 36 128
13 36 128
13 36 128
13 36 128
14 37 128
14 37 128
14 37 128
14 37 128
14 38 128
15 38 128
16 39 128
70 96 170
148 177 231
178 209 255
178 209 255
178 209 255
178 209 255
178 209 255
178 209 255
178 209 255
178 209 255
178 209 255
179 209 255
179 209 255
179 209 255
179 209 255
179 209 255
179 209 255
179 209 255
179 209 255
179 209 255
179 209 255
179 209 255
179 209 255
179 209 255
179 209 255
179 209 255
179 209 255
179 209 255
180 210 255
180 210 255
180 210 255
180 210 255
180 210 255
179 210 255
179 210 255
179 210 255
179 210 255
179 210 255
179 210 255
179 210 255
179 210 255
179 210 255
179 210 255
179 210 255
179 209 255
179 209 255
179 209 255
179 209 255
179 209 255
179 209 255
179 209 255
179 209 255
177 208 254
91 118 186
19 43 130
15 38 128
14 38 128
14 37 128
14 37 128
14 37 128
13 36 128
13 36 128
13 36 128
13 36 128
13 36 128
13 36 128
13 36 128
13 36 128
13 36 128
13 36 128
13 36 128
14 37 128
14 37 128
14 37 128
15 38 128
15 39 128
21 45 131
101 128 194
177 208 254
179 209 255
179 209 255
179 209 255
179 209 255
179 209 255
179 209 255
179 209 255
179 210 255
179 210 255
179 210 255
179 210 255
179 210 255
179 210 255
179 210 255
179 210 255
179 210 255
179 210 255
179 210 255
179 210 255
180 210 255
180 210 255
180 210 255
180 210 255
180 210 255
180 210 255
180 210 255
180 210 255
180 210 255
180 210 255
180 210 255
180 210 255
180 210 255
180 210 255
180 210 255
180 210 255
180 210 255
180 210 255
180 210 255
180 210 255
180 210 255
180 210 255
180 210 255
180 210 255
180 210 255
180 210 255
180 210 255
180 210 255
168 198 246
52 77 156
16 39 128
15 38 128
14 38 128
14 37 128
14 37 128
13 37 128
13 36 128
13 36 128
13 36 128
13 36 128
13 36 128
13 36 128
13 36 128
13 36 128
13 36 128
13 36 128
13 36 128
13 36 128
13 36 128
13 37 128
14 37 128
14 37 128
14 38 128
15 38 128
16 39 128
49 74 153
152 181 233
180 210 255
180 210 255
180 210 255
180 210 255
180 210 255
180 210 255
180 210 255
180 210 255
180 210 255
180 210 255
180 210 255
180 210 255
180 210 255
180 210 255
180 210 255
180 210 255
180 210 255
180 210 255
180 210 255
180 210 255
180 210 255
180 210 255
180 210 255
181 211 255
181 211 255
181 211 255
181 210 255
181 210 255
181 210 255
181 210 255
181 210 255
181 210 255
181 210 255
181 210 255
181 210 255
181 210 255
180 210 255
180 210 255
180 210 255
180 210 255
180 210 255
180 210 255
180 210 255
180 210 255
180 210 255
148 176 230
33 57 140
16 39 128
15 38 128
14 38 128
14 37 128
14 37 128
14 37 128
13 36 128
13 36 128
13 36 128
13 36 128
13 36 128
13 36 128
13 36 128
13 36 128
13 36 128
13 36 128
13 36 128
13 36 128
13 36 128
13 36 128
13 36 128
14 37 128
14 37 128
14 37 128
14 38 128
15 38 128
16 39 128
26 50 135
156 185 236
180 210 255
180 210 255
180 210 255
180 210 255
180 210 255
180 210 255
180 210 255
180 210 255
180 210 255
181 210 255
181 210 255
181 210 255
181 210 255
181 210 255
181 210 255
181 210 255
181 210 255
181 210 255
181 210 255
181 210 255
181 211 255
181 211 255
182 211 255
182 211 255
181 211 255
181 211 255
181 211 255
181 211 255
181 211 255
181 211 255
181 211 255
181 211 255
181 211 255
181 211 255
181 211 255
181 211 255
181 211 255
181 211 255
181 211 255
181 211 255
181 211 255
181 211 255
181 211 255
145 173 227
18 42 129
16 39 128
15 38 128
15 38 128
14 37 128
14 37 128
14 37 128
13 37 128
13 36 128
13 36 128
13 36 128
13 36 128
13 36 128
13 36 128
13 36 128
13 36 128
13 36 128
13 36 128
13 36 128
13 36 128
13 36 128
13 36 128
13 36 128
13 37 128
14 37 128
14 37 128
14 37 128
15 38 128
15 38 128
16 39 128
20 44 130
150 178 231
181 211 255
181 211 255
181 211 255
181 211 255
181 211 255
181 211 255
181 211 255
181 211 255
181 211 255
181 211 255
181 211 255
181 211 255
181 211 255
181 211 255
181 211 255
181 211 255
181 211 255
181 211 255
181 211 255
182 211 255
182 211 255
182 211 255
182 211 255
182 211 255
182 211 255
182 211 255
182 211 255
182 211 255
182 211 255
182 211 255
182 211 255
182 211 255
182 211 255
182 211 255
182 211 255
182 211 255
182 211 255
182 211 255
182 211 255
182 211 255
182 211 255
162 191 240
23 47 133
16 39 128
15 39 128
15 38 128
14 38 128
14 37 128
14 37 128
14 37 128
14 37 128
13 36 128
13 36 128
13 36 128
13 36 128
13 36 128
13 36 128
13 36 128
13 36 128
13 36 128
13 36 128
13 36 128
13 36 128
13 36 128
13 36 128
13 36 128
14 37 128
14 37 128
14 37 128
14 37 128
14 38 128
15 38 128
15 39 128
16 39 128
27 51 135
149 177 230
182 211 255
182 211 255
182 211 255
182 211 255
182 211 255
182 211 255
182 211 255
182 211 255
182 211 255
182 211 255
182 211 255
182 211 255
182 211 255
182 211 255
182 211 255
182 211 255
182 211 255
182 211 255
182 211 255
182 211 255
183 212 255
183 212 255
183 212 255
183 212 255
183 212 255
183 212 255
183 212 255
183 212 255
183 212 255
182 211 255
182 211 255
182 211 255
182 211 255
182 211 255
182 211 255
182 211 255
182 211 255
182 211 255
182 211 255
167 196 244
37 61 143
16 40 128
15 39 128
15 38 128
15 38 128
14 38 128
14 37 128
14 37 128
14 37 128
14 37 128
14 37 128
13 37 128
13 36 128
13 36 128
13 36 128
13 36 128
13 36 128
13 36 128
13 36 128
13 36 128
13 36 128
13 36 128
13 36 128
13 37 128
14 37 128
14 37 128
14 37 128
14 37 128
14 37 128
14 38 128
15 38 128
15 38 128
15 39 128
16 40 128
38 63 144
167 196 244
182 211 255
182 211 255
182 211 255
182 211 255
182 211 255
182 211 255
182 211 255
182 211 255
182 211 255
183 212 255
183 212 255
183 212 255
183 212 255
183 212 255
183 212 255
183 212 255
183 212 255
183 212 255
183 212 255
183 212 255
183 212 255
183 212 255
183 212 255
183 212 255
183 212 255
183 212 255
183 212 255
183 212 255
183 212 255
183 212 255
183 212 255
183 212 255
183 212 255
183 212 255
183 212 255
183 212 255
183 212 255
183 212 255
79 104 175
16 40 128
16 39 128
15 39 128
15 38 128
15 38 128
15 38 128
14 38 128
14 37 128
14 37 128
14 37 128
14 37 128
14 37 128
14 37 128
14 37 128
14 37 128
13 37 128
13 37 128
13 37 128
13 37 128
13 37 128
14 37 128
14 37 128
14 37 128
14 37 128
14 37 128
14 37 128
14 37 128
14 37 128
14 38 128
15 38 128
15 38 128
15 38 128
15 39 128
16 39 128
16 40 128
77 103 173
183 212 255
183 212 255
183 212 255
183 212 255
183 212 255
183 212 255
183 212 255
183 212 255
183 212 255
183 212 255
183 212 255
183 212 255
183 212 255
183 212 255
183 212 255
183 212 255
183 212 255
183 212 255
183 212 255
184 212 255
184 212 255
184 212 255
184 212 255
184 212 255
184 212 255
184 212 255
184 212 255
184 212 255
184 212 255
184 212 255
184 212 255
184 212 255
184 212 255
184 212 255
184 212 255
184 212 255
184 212 255
129 156 213
17 41 128
16 40 128
16 39 128
15 39 128
15 39 128
15 38 128
15 38 128
15 38 128
14 38 128
14 37 128
14 37 128
14 37 128
14 37 128
14 37 128
14 37 128
14 37 128
14 37 128
14 37 128
14 37 128
14 37 128
14 37 128
14 37 128
14 37 128
14 37 128
14 37 128
14 37 128
14 37 128
14 38 128
14 38 128
15 38 128
15 38 128
15 38 128
15 39 128
15 39 128
16 39 128
16 40 128
17 41 128
140 168 222
184 212 255
184 212 255
184 212 255
184 212 255
184 212 255
184 212 255
184 212 255
184 212 255
184 212 255
184 212 255
184 212 255
184 212 255
184 212 255
184 212 255
184 212 255
184 212 255
184 212 255
184 212 255
185 213 255
185 213 255
185 213 255
185 213 255
185 213 255
185 213 255
184 213 255
184 213 255
184 213 255
184 213 255
184 213 255
184 213 255
184 213 255
184 213 255
184 213 255
184 213 255
184 213 255
183 211 254
46 70 149
17 40 128
16 40 128
16 39 128
16 39 128
15 39 128
15 39 128
15 38 128
15 38 128
15 38 128
15 38 128
14 38 128
14 38 128
14 38 128
14 37 128
14 37 128
14 37 128
14 37 128
14 37 128
14 37 128
14 37 128
14 37 128
14 37 128
14 37 128
14 37 128
14 38 128
14 38 128
14 38 128
15 38 128
15 38 128
15 38 128
15 38 128
15 39 128
15 39 128
16 39 128
16 39 128
16 40 128
17 40 128
37 62 143
179 207 251
184 213 255
184 213 255
184 213 255
184 213 255
184 213 255
184 213 255
184 213 255
184 213 255
184 213 255
184 213 255
184 213 255
185 213 255
185 213 255
185 213 255
185 213 255
185 213 255
185 213 255
185 213 255
185 213 255
185 213 255
185 213 255
185 213 255
185 213 255
185 213 255
185 213 255
185 213 255
185 213 255
185 213 255
185 213 255
185 213 255
185 213 255
185 213 255
185 213 255
185 213 255
101 127 191
17 41 128
17 40 128
16 40 128
16 40 128
16 39 128
16 39 128
15 39 128
15 39 128
15 39 128
15 38 128
15 38 128
15 38 128
15 38 128
15 38 128
15 38 128
15 38 128
15 38 128
15 38 128
15 38 128
15 38 128
15 38 128
15 38 128
15 38 128
15 38 128
15 38 128
15 38 128
15 38 128
15 38 128
15 38 128
15 38 128
15 39 128
15 39 128
15 39 128
16 39 128
16 39 128
16 40 128
16 40 128
17 40 128
17 41 128
126 153 210
185 213 255
185 213 255
185 213 255
185 213 255
185 213 255
185 213 255
185 213 255
185 213 255
185 213 255
185 213 255
185 213 255
185 213 255
185 213 255
185 213 255
185 213 255
185 213 255
185 213 255
186 214 255
186 213 255
186 213 255
186 213 255
186 213 255
186 213 255
186 213 255
186 213 255
186 213 255
186 213 255
186 213 255
186 213 255
186 213 255
186 213 255
186 213 255
186 213 255
186 213 255
43 67 147
17 41 128
17 40 128
16 40 128
16 40 128
16 40 128
16 39 128
16 39 128
16 39 128
15 39 128
15 39 128
15 39 128
15 39 128
15 39 128
15 38 128
15 38 128
15 38 128
15 38 128
15 38 128
15 38 128
15 38 128
15 38 128
15 38 128
15 38 128
15 38 128
15 38 128
15 38 128
15 39 128
15 39 128
15 39 128
15 39 128
15 39 128
16 39 128
16 39 128
16 39 128
16 40 128
16 40 128
16 40 128
17 40 128
17 41 128
45 69 148
186 213 255
186 213 255
186 213 255
186 213 255
186 213 255
186 213 255
186 213 255
186 213 255
186 213 255
186 213 255
186 213 255
186 213 255
186 213 255
186 213 255
186 214 255
186 214 255
186 214 255
187 214 255
186 214 255
186 214 255
186 214 255
186 214 255
186 214 255
186 214 255
186 214 255
186 214 255
186 214 255
186 214 255
186 214 255
186 214 255
186 214 255
186 214 255
186 214 255
136 162 217
18 42 128
17 41 128
17 41 128
17 40 128
16 40 128
16 40 128
16 40 128
16 40 128
16 39 128
16 39 128
16 39 128
16 39 128
16 39 128
16 39 128
15 39 128
15 39 128
15 39 128
15 39 128
15 39 128
15 39 128
15 39 128
15 39 128
15 39 128
15 39 128
15 39 128
15 39 128
15 39 128
16 39 128
16 39 128
16 39 128
16 39 128
16 39 128
16 39 128
16 40 128
16 40 128
16 40 128
16 40 128
17 40 128
17 41 128
17 41 128
18 42 128
153 179 230
186 214 255
186 214 255
186 214 255
186 214 255
186 214 255
186 214 255
186 214 255
186 214 255
186 214 255
186 214 255
186 214 255
186 214 255
186 214 255
186 214 255
187 214 255
187 214 255
187 214 255
187 214 255
187 214 255
187 214 255
187 214 255
187 214 255
187 214 255
187 214 255
187 214 255
187 214 255
187 214 255
187 214 255
187 214 255
187 214 255
187 214 255
187 214 255
86 111 179
18 42 128
17 41 128
17 41 128
17 41 128
17 40 128
17 40 128
16 40 128
16 40 128
16 40 128
16 40 128
16 40 128
16 40 128
16 40 128
16 40 128
16 40 128
16 39 128
16 39 128
16 39 128
16 39 128
16 39 128
16 39 128
16 39 128
16 39 128
16 39 128
16 39 128
16 39 128
16 40 128
16 40 128
16 40 128
16 40 128
16 40 128
16 40 128
16 40 128
16 40 128
16 40 128
17 40 128
17 40 128
17 41 128
17 41 128
17 41 128
18 42 128
94 120 185
187 214 255
187 214 255
187 214 255
187 214 255
187 214 255
187 214 255
187 214 255
187 214 255
187 214 255
187 214 255
187 214 255
187 214 255
187 214 255
187 214 255
187 214 255
187 214 255
188 215 255
188 215 255
188 215 255
188 215 255
188 215 255
188 215 255
188 215 255
188 215 255
188 215 255
188 215 255
188 215 255
188 215 255
188 215 255
188 215 255
188 215 255
188 215 255
47 72 149
18 42 128
18 41 128
17 41 128
17 41 128
17 41 128
17 41 128
17 41 128
17 41 128
17 40 128
17 40 128
17 40 128
17 40 128
16 40 128
16 40 128
16 40 128
16 40 128
16 40 128
16 40 128
16 40 128
16 40 128
16 40 128
16 40 128
16 40 128
16 40 128
16 40 128
16 40 128
16 40 128
16 40 128
16 40 128
17 40 128
17 40 128
17 40 128
17 40 128
17 41 128
17 41 128
17 41 128
17 41 128
17 41 128
17 41 128
18 41 128
18 42 128
40 65 144
188 215 255
188 215 255
188 215 255
188 215 255
188 215 255
188 215 255
188 215 255
188 215 255
188 215 255
188 215 255
188 215 255
188 215 255
188 215 255
188 215 255
188 215 255
188 215 255
188 215 255
188 215 255
188 215 255
188 215 255
188 215 255
188 215 255
188 215 255
188 215 255
188 215 255
188 215 255
188 215 255
188 215 255
188 215 255
188 215 255
188 215 255
171 198 242
18 42 128
18 42 128
18 42 128
18 42 128
18 41 128
17 41 128
17 41 128
17 41 128
17 41 128
17 41 128
17 41 128
17 41 128
17 41 128
17 41 128
17 41 128
17 41 128
17 41 128
17 41 128
17 41 128
17 41 128
17 41 128
17 41 128
17 41 128
17 41 128
17 41 128
17 41 128
17 41 128
17 41 128
17 41 128
17 41 128
17 41 128
17 41 128
17 41 128
17 41 128
17 41 128
17 41 128
17 41 128
17 41 128
18 41 128
18 42 128
18 42 128
18 42 128
18 42 128
176 203 246
188 215 255
188 215 255
188 215 255
188 215 255
188 215 255
188 215 255
188 215 255
188 215 255
188 215 255
188 215 255
188 215 255
188 215 255
188 215 255
188 215 255
188 215 255
189 215 255
189 215 255
189 215 255
189 215 255
189 215 255
189 215 255
189 215 255
189 215 255
189 215 255
189 215 255
189 215 255
189 215 255
189 215 255
189 215 255
189 215 255
157 183 231
18 42 128
18 42 128
18 42 128
18 42 128
18 42 128
18 42 128
18 42 128
18 42 128
18 42 128
18 41 128
18 41 128
17 41 128
17 41 128
17 41 128
17 41 128
17 41 128
17 41 128
17 41 128
17 41 128
17 41 128
17 41 128
17 41 128
17 41 128
17 41 128
17 41 128
17 41 128
17 41 128
17 41 128
17 41 128
17 41 128
17 41 128
17 41 128
17 41 128
18 41 128
18 41 128
18 42 128
18 42 128
18 42 128
18 42 128
18 42 128
18 42 128
18 42 128
18 43 128
150 176 226
189 215 255
189 215 255
189 215 255
189 215 255
189 215 255
189 215 255
189 215 255
189 215 255
189 215 255
189 215 255
189 215 255
189 215 255
189 215 255
189 215 255
189 215 255
190 216 255
190 216 255
190 216 255
190 216 255
190 216 255
190 216 255
190 216 255
190 216 255
190 216 255
190 216 255
190 216 255
190 216 255
190 216 255
190 216 255
190 216 255
120 145 203
19 43 128
18 43 128
18 42 128
18 42 128
18 42 128
18 42 128
18 42 128
18 42 128
18 42 128
18 42 128
18 42 128
18 42 128
18 42 128
18 42 128
18 42 128
18 42 128
18 42 128
18 42 128
18 42 128
18 42 128
18 42 128
18 42 128
18 42 128
18 42 128
18 42 128
18 42 128
18 42 128
18 42 128
18 42 128
18 42 128
18 42 128
18 42 128
18 42 128
18 42 128
18 42 128
18 42 128
18 42 128
18 42 128
18 42 128
18 42 128
18 42 128
18 43 128
19 43 128
111 136 196
190 216 255
190 216 255
190 216 255
190 216 255
190 216 255
190 216 255
190 216 255
190 216 255
190 216 255
190 216 255
190 216 255
190 216 255
190 216 255
190 216 255
190 216 255
190 216 255
190 216 255
190 216 255
190 216 255
190 216 255
190 216 255
190 216 255
190 216 255
190 216 255
190 216 255
190 216 255
190 216 255
190 216 255
190 216 255
190 216 255
110 135 195
19 43 128
19 43 128
19 43 128
19 43 128
19 43 128
19 43 128
18 43 128
18 43 128
18 43 128
18 43 128
18 43 128
18 42 128
18 42 128
18 42 128
18 42 128
18 42 128
18 42 128
18 42 128
18 42 128
18 42 128
18 42 128
18 42 128
18 42 128
18 42 128
18 42 128
18 42 128
18 42 128
18 42 128
18 42 128
18 42 128
18 42 128
18 42 128
18 42 128
18 43 128
18 43 128
18 43 128
19 43 128
19 43 128
19 43 128
19 43 128
19 43 128
19 43 128
19 43 128
108 133 194
190 216 255
190 216 255
190 216 255
190 216 255
190 216 255
190 216 255
190 216 255
190 216 255
190 216 255
190 216 255
190 216 255
190 216 255
190 216 255
190 216 255
190 216 255
191 217 255
191 217 255
191 217 255
191 217 255
191 217 255
191 217 255
191 217 255
191 217 255
191 217 255
191 217 255
191 217 255
191 217 255
191 217 255
191 217 255
191 217 255
103 128 190
19 43 128
19 43 128
19 43 128
19 43 128
19 43 128
19 43 128
19 43 128
19 43 128
19 43 128
19 43 128
19 43 128
19 43 128
19 43 128
19 43 128
19 43 128
19 43 128
19 43 128
19 43 128
19 43 128
19 43 128
19 43 128
19 43 128
19 43 128
19 43 128
19 43 128
19 43 128
19 43 128
19 43 128
19 43 128
19 43 128
19 43 128
19 43 128
19 43 128
19 43 128
19 43 128
19 43 128
19 43 128
19 43 128
19 43 128
19 43 128
19 43 128
19 43 128
19 43 128
90 114 180
191 217 255
191 217 255
191 217 255
191 217 255
191 217 255
191 217 255
191 217 255
191 217 255
191 217 255
191 217 255
191 217 255
191 217 255
191 217 255
191 217 255
191 217 255
192 217 255
192 217 255
192 217 255
192 217 255
192 217 255
192 217 255
192 217 255
192 217 255
192 217 255
192 217 255
192 217 255
192 217 255
192 217 255
192 217 255
192 217 255
97 122 185
19 43 128
19 43 126
19 43 122
18 41 111
17 39 98
17 40 103
16 38 91
16 38 90
16 38 88
16 37 84
16 37 85
15 36 75
14 34 67
15 35 72
16 37 83
14 33 61
14 34 66
15 36 76
14 34 68
15 36 80
15 35 70
15 35 75
14 35 70
15 36 80
14 33 61
15 35 70
14 34 67
16 37 82
16 37 83
15 35 74
15 36 80
15 35 71
15 36 76
15 36 80
16 37 87
15 36 76
16 38 91
17 39 95
18 41 108
17 40 106
19 42 119
19 44 128
19 43 128
92 116 181
192 217 255
192 217 255
192 217 255
192 217 255
192 217 255
192 217 255
192 217 255
192 217 255
192 217 255
192 217 255
192 217 255
192 217 255
192 217 255
192 217 255
192 217 255
192 217 255
192 217 255
192 217 255
192 217 255
192 217 255
192 217 255
192 217 255
192 217 255
192 217 255
192 217 255
192 217 255
192 217 255
192 217 255
192 217 255
192 217 255
95 119 179
13 32 54
10 27 18
10 26 13
10 26 13
10 26 13
10 26 13
10 26 13
10 26 13
10 26 13
10 26 13
10 26 13
10 26 13
10 26 13
10 26 13
10 26 13
10 26 13
10 26 13
10 26 13
10 26 13
10 26 13
10 26 13
10 26 13
10 26 13
10 26 13
10 26 13
10 26 13
10 26 13
10 26 13
10 26 13
10 26 13
10 26 13
10 26 13
10 26 13
10 26 13
10 26 13
10 26 13
10 26 13
10 26 13
10 26 13
10 26 13
10 26 13
10 27 18
13 33 55
92 116 180
192 217 255
192 217 255
192 217 255
192 217 255
192 217 255
192 217 255
192 217 255
192 217 255
192 217 255
192 217 255
192 217 255
192 217 255
192 217 255
192 217 255
192 217 255
193 218 255
193 218 255
193 218 255
193 218 255
193 218 255
193 218 255
193 218 255
193 218 255
193 218 255
193 218 255
193 218 255
193 218 255
193 218 255
193 218 255
193 218 255
133 156 187
10 26 13
10 26 13
10 26 13
10 26 13
10 26 13
10 26 13
10 26 13
10 26 13
10 26 13
10 26 13
10 26 13
10 26 13
10 26 13
10 26 13
10 26 13
10 26 13
10 26 13
10 26 13
10 26 13
10 26 13
10 26 13
10 26 13
10 26 13
10 26 13
10 26 13
10 26 13
10 26 13
10 26 13
10 26 13
10 26 13
10 26 13
10 26 13
10 26 13
10 26 13
10 26 13
10 26 13
10 26 13
10 26 13
10 26 13
10 26 13
10 26 13
10 26 13
10 26 13
111 133 156
193 218 255
193 218 255
193 218 255
193 218 255
193 218 255
193 218 255
193 218 255
193 218 255
193 218 255
193 218 255
193 218 255
193 218 255
193 218 255
193 218 255
193 218 255
193 218 255
194 218 255
193 218 255
193 218 255
193 218 255
194 218 255
193 218 255
193 218 255
194 218 255
194 218 255
194 218 255
194 218 255
194 218 255
194 218 255
194 218 255
144 166 191
10 26 13
10 26 13
10 26 13
10 26 13
10 26 13
10 26 13
10 26 13
10 26 13
10 26 13
10 26 13
10 26 13
10 26 13
10 26 13
10 26 13
10 26 13
10 26 13
10 26 13
10 26 13
10 26 13
10 26 13
10 26 13
10 26 13
10 26 13
10 26 13
10 26 13
10 26 13
10 26 13
10 26 13
10 26 13
10 26 13
10 26 13
10 26 13
10 26 13
10 26 13
10 26 13
10 26 13
10 26 13
10 26 13
10 26 13
10 26 13
10 26 13
10 26 13
10 26 13
152 174 202
194 218 255
194 218 255
194 218 255
194 218 255
194 218 255
194 218 255
194 218 255
194 218 255
194 218 255
193 218 255
193 218 255
193 218 255
193 218 255
193 218 255
193 218 255
160 187 175
150 178 149
142 171 131
146 175 140
141 170 129
143 172 133
133 163 110
141 170 126
135 164 113
137 166 120
138 167 120
132 161 106
132 161 106
130 160 101
126 156 92
121 150 100
11 27 13
10 26 13
10 26 13
10 26 13
10 26 13
10 26 13
10 26 13
10 26 13
10 26 13
10 26 13
10 26 13
10 26 13
10 26 13
10 26 13
10 26 13
10 26 13
10 26 13
10 26 13
10 26 13
10 26 13
10 26 13
10 26 13
10 26 13
10 26 13
10 26 13
10 26 13
10 26 13
10 26 13
10 26 13
10 26 13
10 26 13
10 26 13
10 26 13
10 26 13
10 26 13
10 26 13
10 26 13
10 26 13
10 26 13
10 26 13
10 26 13
10 26 13
10 26 13
117 145 93
128 158 97
139 168 124
130 159 99
130 159 101
138 168 124
140 168 124
137 166 120
150 177 147
142 171 131
149 177 147
134 163 108
143 172 133
149 177 147
147 175 143
157 184 165
99 131 25
97 130 25
98 130 25
98 130 25
98 130 25
99 131 25
98 130 25
98 130 25
97 130 25
98 130 25
98 130 25
97 130 25
98 130 25
97 130 25
98 130 25
97 130 25
20 38 14
10 26 13
10 26 13
10 26 13
10 26 13
10 26 13
10 26 13
10 26 13
10 26 13
10 26 13
10 26 13
10 26 13
10 26 13
10 26 13
10 26 13
10 26 13
10 26 13
10 25 12
10 26 13
10 26 13
10 26 13
10 26 13
10 26 13
10 26 13
10 26 13
10 26 13
10 26 13
10 26 13
10 26 13
10 26 13
10 26 13
10 26 13
10 26 13
10 26 13
10 26 13
10 26 13
10 26 13
10 26 13
10 26 13
10 26 13
10 26 13
10 26 13
22 41 15
97 130 25
99 131 25
97 130 25
98 130 25
97 130 25
98 130 25
98 130 25
99 131 25
98 130 25
98 130 25
97 130 25
98 130 25
99 131 25
98 130 25
98 130 25
97 130 25
99 131 25
98 130 25
99 131 25
97 130 25
98 130 25
99 131 25
98 130 25
98 130 25
99 131 25
99 131 25
98 130 25
99 131 25
99 131 25
99 131 25
98 130 25
100 131 25
50 74 19
10 26 13
10 26 13
10 26 13
10 26 13
10 26 13
10 26 13
10 26 13
10 26 13
9 25 13
10 26 13
10 26 13
10 26 13
10 26 13
10 26 13
10 26 13
10 26 13
10 26 13
10 26 13
10 26 13
10 26 13
10 26 13
10 26 13
10 26 13
10 26 13
10 26 13
10 26 13
10 26 13
10 26 13
10 26 13
9 25 13
10 26 13
10 26 13
10 26 13
10 26 13
10 26 13
10 26 13
10 26 13
10 26 13
10 26 13
10 26 13
10 26 13
50 73 18
97 130 25
98 130 25
98 130 25
97 130 25
98 130 25
99 131 25
97 130 25
98 130 25
98 130 25
96 129 25
98 130 25
98 130 25
98 130 25
98 130 25
99 131 25
98 130 25
99 131 25
99 131 25
99 131 25
98 130 25
98 130 25
98 130 25
98 130 25
98 130 25
97 130 25
98 130 25
98 130 25
98 130 25
99 131 25
99 131 25
99 131 25
98 130 25
75 103 22
10 26 13
10 26 13
10 26 13
10 26 13
10 26 13
10 26 13
9 25 13
10 26 13
9 25 12
10 26 13
9 25 13
10 26 13
9 25 13
10 26 13
10 26 13
9 25 12
9 25 13
9 25 12
10 26 13
10 26 13
10 26 13
10 26 13
10 26 13
9 25 12
10 25 13
10 26 13
10 26 13
9 25 12
10 26 13
10 26 13
10 26 13
10 25 12
10 26 13
10 26 13
10 26 13
10 26 13
10 26 13
10 26 13
10 26 13
10 26 13
10 26 13
74 102 22
99 131 25
99 131 25
99 131 25
98 130 25
99 131 25
98 130 25
99 131 25
98 130 25
99 131 25
98 130 25
98 130 25
97 130 25
99 131 25
98 130 25
98 130 25
98 130 25
97 130 25
98 130 25
98 130 25
98 130 25
98 130 25
99 131 25
97 130 25
98 130 25
98 130 25
98 130 25
98 130 25
99 131 25
98 130 25
98 130 25
97 129 25
98 130 25
98 130 25
22 40 15
10 26 13
10 26 13
9 25 12
10 26 13
10 26 13
9 25 12
9 25 13
10 26 13
10 26 13
10 25 12
10 26 13
9 25 12
9 24 12
9 25 12
9 25 12
9 25 12
9 25 12
10 26 13
10 26 13
9 25 12
9 25 12
9 25 12
10 26 13
9 25 12
10 26 13
9 25 12
9 25 12
9 25 12
10 25 13
10 26 13
10 26 13
9 25 12
10 26 13
10 26 13
10 26 13
9 25 12
10 26 13
10 26 13
10 26 13
17 34 14
97 129 25
98 130 25
98 130 25
98 130 25
99 131 25
98 130 25
99 131 25
98 130 25
97 130 25
99 131 25
98 130 25
98 130 25
99 131 25
97 130 25
100 131 25
98 130 25
99 131 25
97 130 25
98 130 25
98 130 25
98 130 25
97 130 25
98 130 25
98 130 25
98 130 25
99 131 25
98 130 25
98 130 25
99 131 25
98 130 25
98 130 25
98 130 25
98 130 25
98 130 25
65 92 21
10 26 13
10 26 13
10 26 13
9 25 12
10 26 13
9 25 12
9 25 12
9 25 12
9 25 12
10 25 12
9 25 12
9 25 12
9 25 12
9 25 12
9 24 12
9 25 12
9 25 12
9 24 12
9 25 12
10 25 13
9 25 13
10 26 13
9 25 12
9 25 12
9 24 12
10 26 13
9 25 12
9 25 12
9 25 12
9 25 12
9 25 13
10 26 13
10 25 13
10 26 13
9 25 12
10 26 13
10 26 13
10 26 13
10 26 13
61 85 20
97 130 25
97 130 25
98 130 25
99 131 25
98 130 25
98 130 25
98 130 25
98 130 25
98 130 25
99 131 25
98 130 25
97 130 25
98 130 25
97 130 25
98 130 25
97 130 25
97 130 25
100 131 25
97 130 25
99 131 25
97 130 25
98 130 25
97 130 25
96 129 25
99 131 25
98 130 25
98 130 25
98 130 25
99 131 25
98 130 25
99 131 25
97 130 25
97 129 25
99 131 25
95 127 25
20 38 14
10 26 13
9 25 13
10 26 12
9 25 12
9 25 12
10 26 12
9 25 12
9 24 12
9 24 12
9 25 12
9 24 12
10 26 13
9 24 12
9 25 12
9 25 12
9 23 12
9 24 12
9 24 12
8 23 12
9 24 12
9 23 12
8 23 11
9 24 12
9 25 12
9 24 12
9 25 12
9 25 12
9 25 12
9 25 12
9 24 12
9 25 12
9 24 12
10 26 13
9 24 12
10 26 13
10 26 13
10 26 13
23 41 15
94 125 25
98 130 25
98 130 25
98 130 25
97 130 25
98 130 25
98 130 25
98 130 25
98 130 25
98 130 25
98 130 25
99 131 25
100 131 25
100 131 25
97 130 25
98 130 25
99 131 25
98 130 25
98 130 25
99 131 25
98 130 25
98 130 25
99 131 25
98 130 25
99 131 25
97 130 25
98 130 25
99 131 25
98 130 25
98 130 25
98 130 25
99 131 25
98 130 25
97 130 25
98 130 25
98 130 25
77 105 22
10 26 13
9 25 12
10 25 12
9 25 12
9 25 12
9 24 12
9 24 12
9 24 12
9 24 12
9 24 12
9 23 12
9 24 12
9 23 11
9 23 12
9 23 12
9 25 12
9 24 12
8 23 11
9 24 12
9 24 12
9 23 12
9 24 12
9 23 11
9 24 12
8 23 11
9 23 11
9 24 12
9 23 12
9 24 12
9 24 12
9 24 12
9 24 12
9 25 12
10 25 12
9 25 12
10 25 12
10 26 13
71 98 22
98 130 25
98 130 25
98 130 25
99 131 25
99 131 25
98 130 25
99 131 25
97 129 25
98 130 25
97 130 25
99 131 25
98 130 25
98 130 25
98 130 25
99 131 25
98 130 25
99 131 25
97 130 25
98 130 25
98 130 25
99 131 25
99 131 25
98 130 25
99 131 25
97 129 25
98 130 25
99 131 25
99 131 25
99 131 25
97 129 25
99 131 25
99 131 25
98 130 25
100 131 25
97 130 25
99 131 25
97 130 25
40 61 17
10 26 13
10 26 13
9 25 12
8 22 11
9 24 12
9 24 12
9 24 12
8 23 11
8 22 11
8 21 10
9 24 12
8 21 11
8 23 11
9 23 12
9 23 12
8 22 11
8 22 11
8 21 11
8 22 11
8 23 11
9 23 12
8 23 11
8 23 11
9 24 12
8 21 11
9 24 12
9 24 12
9 23 12
9 23 12
9 23 12
9 24 12
9 24 12
9 24 12
9 25 12
9 25 12
45 68 18
98 130 25
99 131 25
99 131 25
97 130 25
99 131 25
99 131 25
100 131 25
98 130 25
99 131 25
98 130 25
97 130 25
98 130 25
99 131 25
98 130 25
99 131 25
99 131 25
97 129 25
99 131 25
98 129 25
98 130 25
98 130 25
99 131 25
98 130 25
98 130 25
97 129 25
98 130 25
100 131 25
99 131 25
97 130 25
99 131 25
98 130 25
99 131 25
98 130 25
99 131 25
98 130 25
97 130 25
98 130 25
98 130 25
93 125 25
20 38 14
9 25 12
9 25 12
9 24 12
9 24 12
8 21 11
9 23 12
8 23 11
8 22 11
8 21 11
8 21 10
8 23 11
9 23 12
8 21 10
8 22 11
8 21 10
8 22 11
8 22 11
8 21 11
8 21 11
8 22 11
8 22 11
8 22 11
8 21 11
8 22 11
8 22 11
9 23 11
8 23 11
8 22 11
8 23 11
8 23 11
9 24 12
9 24 12
10 26 13
20 38 14
91 121 24
98 130 25
99 131 25
99 131 25
98 130 25
98 130 25
98 130 25
98 130 25
100 132 25
98 130 25
98 130 25
97 130 25
98 130 25
98 130 25
99 131 25
98 130 25
99 131 25
97 130 25
98 130 25
98 130 25
97 130 25
98 130 25
98 130 25
98 130 25
98 130 25
99 131 25
97 130 25
98 130 25
98 130 25
99 131 25
98 130 25
98 130 25
99 131 25
98 130 25
97 130 25
99 131 25
99 131 25
98 130 25
97 130 25
98 130 25
86 116 24
16 32 13
9 25 12
9 24 12
9 23 11
8 21 11
8 22 11
8 22 11
8 21 10
7 20 10
8 22 11
8 22 11
8 21 11
7 20 10
8 20 10
8 21 11
8 20 10
8 21 11
7 20 10
8 21 11
7 20 10
8 21 10
8 21 11
7 20 10
8 21 11
8 22 11
8 22 11
8 21 11
8 22 11
8 23 12
8 23 11
9 24 12
9 24 12
15 32 13
82 111 23
97 130 25
98 130 25
98 130 25
99 131 25
99 131 25
99 131 25
97 130 25
98 130 25
98 130 25
97 130 25
98 130 25
97 129 25
99 131 25
97 129 25
99 131 25
97 130 25
98 130 25
98 130 25
97 129 25
98 130 25
97 129 25
99 131 25
99 131 25
97 130 25
97 130 25
99 131 25
99 131 25
99 131 25
99 131 25
98 130 25
98 130 25
99 131 25
98 130 25
98 130 25
99 131 25
97 130 25
98 130 25
99 131 25
97 130 25
99 131 25
99 131 25
76 104 22
12 28 13
9 23 12
8 22 11
8 22 11
8 22 11
8 22 11
8 20 10
8 20 10
7 20 10
8 20 10
7 20 10
7 18 9
7 19 9
6 18 9
7 18 9
7 18 9
8 21 11
8 21 10
7 19 9
7 20 10
7 20 10
8 22 11
7 20 10
8 21 10
7 20 10
7 19 10
8 21 10
7 20 10
8 23 11
9 24 12
16 33 13
74 101 22
98 130 25
99 131 25
97 130 25
99 131 25
98 130 25
99 131 25
99 131 25
99 131 25
99 131 25
98 130 25
99 131 25
98 130 25
97 129 25
97 130 25
100 131 25
99 131 25
97 130 25
98 130 25
98 130 25
99 131 25
99 131 25
98 130 25
99 131 25
98 130 25
99 131 25
98 130 25
99 131 25
98 130 25
98 130 25
98 130 25
97 129 25
97 130 25
97 130 25
98 130 25
98 130 25
97 129 25
98 130 25
98 130 25
99 131 25
98 130 25
98 130 25
98 130 25
97 130 25
84 113 23
16 33 13
8 23 11
8 22 11
7 19 10
7 18 10
7 20 10
7 19 10
7 20 10
7 19 10
7 19 9
6 17 9
7 18 9
7 19 10
7 19 9
7 19 10
6 18 9
5 15 8
7 18 9
7 18 9
7 19 10
7 18 9
7 20 10
7 19 10
8 20 10
7 20 10
8 22 11
8 22 11
8 23 11
14 31 13
80 108 23
99 131 25
97 129 25
97 129 25
98 130 25
98 130 25
96 129 25
97 130 25
98 130 25
98 130 25
99 131 25
98 130 25
99 131 25
99 131 25
98 130 25
99 131 25
98 130 25
97 130 25
99 131 25
97 130 25
96 128 25
98 130 25
98 130 25
99 131 25
98 130 25
98 130 25
97 130 25
98 130 25
98 130 25
99 131 25
99 131 25
98 130 25
97 129 25
98 130 25
99 131 25
99 131 25
98 130 25
99 130 25
98 130 25
98 130 25
99 131 25
99 131 25
98 130 25
99 131 25
98 130 25
99 131 25
85 116 24
27 45 15
9 23 11
8 21 11
8 21 10
7 18 9
7 19 9
7 19 9
7 18 9
6 18 9
7 18 9
7 19 9
6 16 8
7 18 9
6 16 8
5 15 7
7 18 9
6 17 8
6 16 8
7 18 9
7 19 10
7 18 9
7 20 10
6 17 9
7 19 9
7 20 10
8 21 11
29 48 15
91 122 24
97 130 25
98 130 25
98 130 25
98 130 25
98 129 25
98 130 25
98 130 25
97 130 25
98 130 25
98 130 25
97 130 25
97 130 25
98 130 25
98 130 25
98 130 25
97 130 25
97 129 25
97 130 25
99 131 25
97 130 25
99 131 25
97 130 25
98 130 25
98 130 25
97 129 25
97 130 25
98 130 25
98 130 25
97 129 25
98 130 25
98 130 25
98 130 25
98 130 25
98 130 25
98 130 25
99 131 25
99 131 25
99 131 25
98 130 25
98 130 25
99 131 25
98 130 25
98 130 25
97 130 25
99 131 25
97 130 25
97 130 25
96 128 25
52 76 19
14 31 13
8 21 10
7 18 9
7 18 9
6 16 8
6 16 8
6 17 8
6 17 8
6 16 8
5 15 7
5 14 7
6 16 8
7 18 9
6 16 8
6 16 8
6 16 8
6 16 8
6 16 8
6 17 8
7 19 10
7 19 10
8 21 10
10 26 12
52 76 19
95 127 25
98 130 25
98 130 25
98 130 25
98 130 25
96 128 25
99 131 25
100 131 25
97 129 25
98 130 25
98 130 25
99 131 25
98 130 25
98 130 25
98 130 25
97 130 25
97 130 25
98 130 25
98 130 25
97 129 25
98 130 25
98 130 25
98 130 25
99 131 25
100 131 25
98 130 25
97 130 25
98 130 25
98 130 25
99 131 25
97 129 25
98 130 25
98 130 25
98 130 25
99 131 25
98 130 25
98 130 25
97 130 25
99 131 25
98 130 25
98 130 25
97 128 25
97 129 25
100 131 25
97 129 25
97 129 25
99 131 25
98 130 25
97 130 25
97 130 25
95 128 25
83 113 23
32 52 15
8 21 10
7 19 10
7 20 10
6 16 8
6 15 8
5 15 8
5 14 7
5 13 6
6 16 8
5 13 6
5 14 7
5 14 7
5 15 7
5 15 8
6 17 9
5 14 7
7 19 10
7 19 10
9 23 11
45 66 17
88 118 24
97 129 25
98 129 25
98 130 25
98 130 25
99 131 25
97 129 25
96 127 25
98 130 25
98 129 25
95 128 25
98 130 25
98 130 25
97 130 25
98 130 25
99 131 25
99 131 25
98 130 25
98 130 25
98 130 25
99 131 25
96 128 25
99 131 25
98 130 25
96 128 25
97 129 25
98 130 25
98 130 25
99 131 25
98 130 25
98 130 25
97 129 25
99 131 25
97 128 25
98 130 25
96 128 25
98 130 25
95 129 25
98 129 25
98 130 25
96 128 25
98 129 25
95 127 25
95 127 25
97 129 25
98 129 25
98 130 25
96 128 25
97 130 25
98 130 25
97 129 25
98 130 25
96 128 25
100 131 25
95 128 25
85 114 23
48 70 17
22 39 13
8 21 10
7 19 10
5 14 7
5 13 6
5 15 7
5 14 7
5 13 6
5 14 6
5 14 7
6 16 8
6 17 8
6 17 9
7 18 9
20 35 12
45 68 17
88 118 24
100 131 25
97 130 25
98 130 25
98 130 25
97 130 25
97 128 25
96 128 25
98 130 25
98 130 25
97 130 25
96 129 25
96 128 25
97 130 25
97 130 25
97 128 25
98 130 25
98 130 25
98 130 25
97 130 25
97 130 25
96 128 25
98 130 25
98 130 25
99 131 25
98 129 25
98 130 25
96 128 25
98 130 25
94 127 25
97 130 25
97 130 25
99 131 25
98 130 25
98 130 25
98 130 25
99 131 25
96 128 25
99 131 25
98 130 25
95 127 25
98 130 25
99 131 25
98 130 25
96 128 25
96 129 25
98 130 25
97 130 25
96 127 25
99 131 25
97 129 25
98 130 25
98 130 25
95 127 25
96 129 25
98 130 25
94 126 25
97 129 25
97 128 25
95 128 25
74 101 21
60 84 19
35 54 15
17 32 11
14 27 10
7 19 9
6 16 8
7 18 9
8 21 10
16 30 11
36 56 15
58 82 19
77 106 22
95 127 25
95 127 25
98 130 25
96 129 25
97 129 25
96 129 25
98 130 25
99 131 25
97 129 25
97 129 25
97 129 25
97 129 25
98 130 25
97 129 25
97 129 25
98 130 25
98 130 25
97 129 25
99 131 25
97 129 25
98 130 25
95 127 25
98 130 25
98 130 25
96 129 25
96 129 25
98 130 25
98 129 25
98 130 25
98 130 25
97 129 25
96 129 25
97 130 25
97 130 25
99 131 25
97 129 25
96 128 25
94 126 25
97 129 25
98 130 25
98 130 25
96 129 25
94 126 25
97 129 25
95 128 25
98 130 25
95 127 25
99 131 25
97 129 25
97 129 25
99 131 25
95 127 25
96 128 25
97 129 25
96 128 25
95 127 25
97 129 25
96 128 25
97 128 25
94 126 25
96 128 25
94 127 25
94 125 25
98 129 25
99 130 25
96 129 25
93 125 25
96 128 25
91 122 24
94 126 25
96 127 25
97 129 25
94 127 25
96 128 25
94 126 25
95 128 25
97 128 25
95 128 25
96 128 25
95 126 25
97 128 25
96 128 25
95 127 25
98 129 25
97 129 25
95 127 25
94 126 25
97 129 25
96 128 25
96 128 25
97 130 25
98 130 25
97 128 25
98 129 25
96 129 25
96 129 25
97 129 25
96 129 25
97 128 25
94 125 25
96 128 25
98 130 25
97 129 25
98 130 25
98 130 25
97 129 25
97 128 25
98 129 25
96 128 25
98 130 25
96 129 25
98 130 25
99 131 25
95 127 25
96 129 25
98 130 25
95 127 25
98 130 25
96 127 25
95 127 25
93 124 24
98 130 25
96 127 25
95 127 25
97 129 25
95 128 25
96 128 25
97 129 25
92 124 25
95 127 25
95 128 25
96 129 25
95 126 25
93 124 25
98 129 25
94 126 25
92 123 24
92 124 25
95 126 25
93 125 25
96 127 25
94 125 25
96 128 25
92 124 25
96 128 25
97 130 25
94 126 25
96 128 25
95 126 25
94 124 24
96 128 25
97 129 25
94 126 25
97 129 25
94 125 25
97 129 25
95 126 25
95 126 25
96 129 25
96 128 25
96 128 25
95 127 25
98 130 25
97 129 25
97 130 25
97 129 25
97 129 25
97 128 25
98 130 25
99 131 25
98 130 25
97 129 25
95 127 25
98 129 25
96 128 25
94 126 25
97 129 25
96 128 25
95 127 25
98 130 25
99 130 25
97 130 25
98 129 25
97 129 25
97 129 25
99 131 25
98 130 25
95 127 25
96 128 25
98 130 25
96 127 25
95 127 25
95 126 25
96 127 25
96 128 25
94 126 25
96 128 25
95 126 25
95 127 25
95 126 25
97 129 25
90 120 24
95 127 25
90 121 24
92 124 25
95 126 25
95 126 25
97 128 25
96 128 25
91 122 24
93 125 25
97 128 25
95 126 25
95 127 25
93 124 25
95 127 25
94 125 25
95 127 25
91 122 24
94 125 25
92 124 25
95 127 25
89 120 24
92 124 25
91 122 24
95 126 25
93 124 25
94 125 25
94 126 25
96 127 25
93 124 24
93 125 25
94 125 25
93 125 25
97 130 25
96 128 25
94 126 25
92 124 25
96 129 25
95 127 25
96 127 25
97 128 25
93 125 25
95 127 25
97 130 25
94 126 25
93 125 25
96 128 25
97 129 25
97 128 25
96 129 25
95 127 25
97 129 25
98 130 25
98 130 25
97 128 25
