P3
45 30
255
176 208 255
176 208 255
176 208 255
176 208 255
176 208 255
176 208 255
176 208 255
176 207 255
176 207 255
176 207 255
176 207 255
176 207 255
175 207 255
175 207 255
175 207 255
175 207 255
175 207 255
175 207 255
175 207 255
175 207 255
175 207 255
175 207 255
175 207 255
175 207 255
175 207 255
175 207 255
175 207 255
176 207 255
175 207 255
175 207 255
176 207 255
175 207 255
175 207 255
176 207 255
176 207 255
176 207 255
176 207 255
176 207 255
176 208 255
176 208 255
176 208 255
176 208 255
176 208 255
176 208 255
176 208 255
177 208 255
177 208 255
177 208 255
177 208 255
177 208 255
177 208 255
177 208 255
177 208 255
177 208 255
177 208 255
177 208 255
177 208 255
177 208 255
176 208 255
176 208 255
176 208 255
176 208 255
176 208 255
176 208 255
176 208 255
161 191 242
128 157 217
112 141 204
160 191 242
160 191 242
176 208 255
176 208 255
176 208 255
176 208 255
176 208 255
176 208 255
176 208 255
176 208 255
176 208 255
177 208 255
177 208 255
177 208 255
177 208 255
177 208 255
177 208 255
177 208 255
177 208 255
177 208 255
177 208 255
177 208 255
178 209 255
178 209 255
178 209 255
178 209 255
178 209 255
178 209 255
178 209 255
178 209 255
178 209 255
178 209 255
178 209 255
177 208 255
177 208 255
178 209 255
178 209 255
177 208 255
177 208 255
161 192 242
80 107 179
31 55 140
15 38 128
15 38 128
14 37 128
15 38 128
15 38 128
15 39 128
80 107 179
161 192 242
177 208 255
177 208 255
177 208 255
177 208 255
177 208 255
178 209 255
178 209 255
178 209 255
178 209 255
178 209 255
178 209 255
178 209 255
178 209 255
178 209 255
178 209 255
178 209 255
178 209 255
179 210 255
179 210 255
179 210 255
179 209 255
179 209 255
179 209 255
179 209 255
179 209 255
179 209 255
179 209 255
179 209 255
179 209 255
179 209 255
179 209 255
179 209 255
178 209 255
48 73 153
15 38 128
14 38 128
14 37 128
13 37 128
13 36 128
13 36 128
13 36 128
13 37 128
14 37 128
14 38 128
15 38 128
81 107 179
162 192 242
178 209 255
179 209 255
179 209 255
179 209 255
179 209 255
179 209 255
179 209 255
179 209 255
179 209 255
179 209 255
179 210 255
179 209 255
179 210 255
179 210 255
179 209 255
180 210 255
180 210 255
180 210 255
180 210 255
180 210 255
180 210 255
180 210 255
180 210 255
180 210 255
180 210 255
180 210 255
180 210 255
180 210 255
180 210 255
114 142 204
16 39 128
14 38 128
14 37 128
14 37 128
13 36 128
13 36 128
13 36 128
13 36 128
13 36 128
13 36 128
13 36 128
13 36 128
14 37 128
14 38 128
32 56 140
48 73 153
180 210 255
180 210 255
180 210 255
180 210 255
180 210 255
180 210 255
180 210 255
180 210 255
180 210 255
180 210 255
180 210 255
180 210 255
180 210 255
180 210 255
181 211 255
181 211 255
181 211 255
181 211 255
181 211 255
181 211 255
181 211 255
181 210 255
181 211 255
181 210 255
181 210 255
181 210 255
181 210 255
49 74 153
16 39 128
14 38 128
14 37 128
14 37 128
13 36 128
13 36 128
13 36 128
13 36 128
13 36 128
13 36 128
13 36 128
13 36 128
13 36 128
14 37 128
14 37 128
15 38 128
16 39 128
65 91 166
181 210 255
181 210 255
181 210 255
181 210 255
181 211 255
181 211 255
181 211 255
181 211 255
181 211 255
181 211 255
181 211 255
181 211 255
181 211 255
182 211 255
182 211 255
182 211 255
182 211 255
182 211 255
182 211 255
182 211 255
182 211 255
182 211 255
182 211 255
182 211 255
182 211 255
66 92 166
16 39 128
15 38 128
14 38 128
14 37 128
14 37 128
13 36 128
13 36 128
13 36 128
13 36 128
13 36 128
13 36 128
13 36 128
13 36 128
13 36 128
14 37 128
14 37 128
14 38 128
15 38 128
16 39 128
132 160 217
182 211 255
182 211 255
182 211 255
182 211 255
182 211 255
182 211 255
182 211 255
182 211 255
182 211 255
182 211 255
182 211 255
182 211 255
183 212 255
183 212 255
183 212 255
183 212 255
183 212 255
183 212 255
183 212 255
183 212 255
183 212 255
183 212 255
183 212 255
83 109 179
16 40 128
15 39 128
15 38 128
14 38 128
14 37 128
14 37 128
14 37 128
14 37 128
14 37 128
13 37 128
13 37 128
13 37 128
14 37 128
14 37 128
14 37 128
14 37 128
14 37 128
15 38 128
15 38 128
15 39 128
16 40 128
67 92 166
183 212 255
183 212 255
183 212 255
183 212 255
183 212 255
183 212 255
183 212 255
183 212 255
183 212 255
183 212 255
183 212 255
185 213 255
184 213 255
184 213 255
184 213 255
184 213 255
184 213 255
184 213 255
184 212 255
184 212 255
184 212 255
167 195 242
17 41 128
16 40 128
15 39 128
15 39 128
15 38 128
15 38 128
14 38 128
14 38 128
14 37 128
14 37 128
14 37 128
14 37 128
14 37 128
14 37 128
14 37 128
14 37 128
14 38 128
15 38 128
15 38 128
15 39 128
16 39 128
16 40 128
34 58 140
167 195 242
184 212 255
184 213 255
184 212 255
184 213 255
184 213 255
184 213 255
184 213 255
184 213 255
184 213 255
184 213 255
185 213 255
185 213 255
185 213 255
185 213 255
185 213 255
185 213 255
185 213 255
185 213 255
185 213 255
185 213 255
102 127 191
17 41 128
16 40 128
16 39 128
16 39 128
15 39 128
15 38 128
15 38 128
15 38 128
15 38 128
15 38 128
15 38 128
15 38 128
15 38 128
15 38 128
15 38 128
15 38 128
15 38 128
15 38 128
15 39 128
16 39 128
16 39 128
16 40 128
17 41 128
101 127 191
185 213 255
185 213 255
185 213 255
185 213 255
185 213 255
185 213 255
185 213 255
185 213 255
185 213 255
185 213 255
187 214 255
186 214 255
187 214 255
186 214 255
186 214 255
186 214 255
186 214 255
186 214 255
186 214 255
186 214 255
51 76 153
17 41 128
17 40 128
16 40 128
16 40 128
16 39 128
16 39 128
16 39 128
15 39 128
15 39 128
15 39 128
15 39 128
15 39 128
15 39 128
15 39 128
15 39 128
15 39 128
16 39 128
16 39 128
16 39 128
16 40 128
16 40 128
17 40 128
17 41 128
18 42 128
169 197 242
186 214 255
186 214 255
186 214 255
186 214 255
187 214 255
186 214 255
186 214 255
186 214 255
187 214 255
188 215 255
187 214 255
188 215 255
188 215 255
187 214 255
187 214 255
187 214 255
187 214 255
187 214 255
137 163 217
18 42 128
17 41 128
17 41 128
17 41 128
17 40 128
17 40 128
16 40 128
16 40 128
16 40 128
16 40 128
16 40 128
16 40 128
16 40 128
16 40 128
16 40 128
16 40 128
16 40 128
16 40 128
16 40 128
16 40 128
17 40 128
17 40 128
17 41 128
17 41 128
18 42 128
137 163 217
187 214 255
187 214 255
187 214 255
187 214 255
187 214 255
188 215 255
188 215 255
188 215 255
188 215 255
189 215 255
188 215 255
189 215 255
189 215 255
189 215 255
189 215 255
188 215 255
188 215 255
188 215 255
120 146 204
18 42 128
18 42 128
18 41 128
17 41 128
17 41 128
17 41 128
17 41 128
17 41 128
17 41 128
17 41 128
17 41 128
17 41 128
17 41 128
17 41 128
17 41 128
17 41 128
17 41 128
17 41 128
17 41 128
17 41 128
17 41 128
17 41 128
18 41 128
18 42 128
18 42 128
104 129 191
189 215 255
189 215 255
188 215 255
189 215 255
188 215 255
188 215 255
189 215 255
189 215 255
189 215 255
190 216 255
190 216 255
190 216 255
190 216 255
189 216 255
190 216 255
190 216 255
189 216 255
190 216 255
87 112 179
18 43 128
18 42 128
18 42 128
18 42 128
18 42 128
18 42 128
18 42 128
18 42 128
18 42 128
18 42 128
18 42 128
18 42 128
18 42 128
18 42 128
18 42 128
18 42 128
18 42 128
18 42 128
18 42 128
18 42 128
18 42 128
18 42 128
18 42 128
18 42 128
18 43 128
70 95 166
190 216 255
189 216 255
190 216 255
190 216 255
190 216 255
190 216 255
190 216 255
190 216 255
190 216 255
191 216 255
191 216 255
191 217 255
191 216 255
191 216 255
191 216 255
191 216 255
191 216 255
191 216 255
105 130 191
19 43 128
19 43 128
19 43 128
19 43 128
19 43 128
19 43 128
19 43 128
19 43 128
19 43 128
19 43 128
19 43 128
19 43 128
19 43 128
19 43 128
19 43 128
19 43 128
19 43 128
19 43 128
19 43 128
19 43 128
19 43 128
19 43 128
19 43 128
19 43 128
19 43 128
36 61 140
191 217 255
191 216 255
191 217 255
191 216 255
191 216 255
191 216 255
191 216 255
191 216 255
191 216 255
192 217 255
192 217 255
192 217 255
192 217 255
192 217 255
192 217 255
192 217 255
192 217 255
192 217 255
71 96 166
16 38 93
17 40 105
13 31 47
12 31 47
15 35 70
13 31 47
13 33 59
16 37 82
13 31 47
14 33 59
12 31 47
14 33 59
13 31 47
15 35 70
13 31 47
11 28 24
14 33 59
15 37 82
14 35 70
13 31 47
12 31 47
14 33 59
17 40 105
13 31 47
14 33 59
87 111 167
192 217 255
192 217 255
192 217 255
192 217 255
192 217 255
192 217 255
192 217 255
192 217 255
192 217 255
193 218 255
193 218 255
193 218 255
193 218 255
193 218 255
193 218 255
193 218 255
193 218 255
193 218 255
83 103 110
10 26 13
10 26 13
10 26 13
10 27 13
10 26 13
10 26 13
10 27 13
10 26 13
10 26 13
10 26 13
10 26 13
10 26 13
10 26 13
10 26 13
10 26 13
10 26 13
10 26 13
10 26 13
10 26 13
10 26 13
10 26 13
9 26 13
10 26 13
9 26 13
10 26 13
86 108 144
193 218 255
193 218 255
193 218 255
193 218 255
193 218 255
193 218 255
193 218 255
193 218 255
193 218 255
154 182 163
139 167 117
175 201 209
144 173 140
165 192 186
153 182 163
128 158 94
156 183 163
156 184 163
65 86 64
10 26 13
10 26 13
10 26 13
10 26 13
10 26 13
10 26 13
10 26 13
9 26 13
10 26 13
10 26 13
10 26 13
10 26 13
10 26 13
10 26 13
10 26 13
10 26 13
10 26 13
10 26 13
10 26 13
10 26 13
10 27 13
10 26 13
10 26 13
10 26 13
10 26 13
57 78 41
129 158 94
148 175 140
129 158 94
164 191 186
174 200 209
157 184 163
166 192 186
175 201 209
194 218 255
94 128 25
100 131 25
101 132 25
98 130 25
99 131 25
95 129 25
101 132 25
94 128 25
99 131 25
90 120 24
10 26 13
10 26 13
10 26 13
10 26 13
10 26 13
10 26 13
10 26 13
9 24 12
10 26 13
10 26 13
10 26 13
10 27 13
9 24 12
10 26 13
10 26 13
10 26 13
10 26 13
10 26 13
10 26 13
10 26 13
10 26 13
10 26 13
10 26 13
10 26 13
10 26 13
81 110 23
96 129 25
95 129 25
96 129 25
100 131 25
101 132 25
97 130 25
98 130 25
100 131 25
100 132 25
96 129 25
97 130 25
98 130 25
99 131 25
95 128 25
97 130 25
97 129 25
99 131 25
93 127 25
101 132 25
19 37 14
10 26 13
10 26 13
10 26 13
10 26 13
9 24 12
10 26 13
10 26 13
8 22 11
10 26 13
10 26 13
9 26 13
10 26 13
10 26 13
10 26 13
10 26 13
10 26 13
10 26 13
10 27 13
10 26 13
10 26 13
10 26 13
10 26 13
10 26 13
19 37 14
94 122 24
102 133 25
97 129 25
95 128 25
94 128 25
100 131 25
99 131 25
99 131 25
100 131 25
101 132 25
100 131 25
96 129 25
97 130 25
100 131 25
97 129 25
99 131 25
99 131 25
96 129 25
101 132 25
104 134 25
45 67 18
10 26 13
10 26 13
10 26 13
9 24 12
10 26 13
10 26 13
10 26 13
9 25 13
10 26 13
7 20 10
10 26 13
10 26 13
9 24 12
9 24 12
10 26 13
9 26 13
9 24 12
10 26 13
9 24 12
10 26 13
10 26 13
10 26 13
10 26 13
62 88 20
98 130 25
98 130 25
99 131 25
97 130 25
98 130 25
100 132 25
101 132 25
99 131 25
95 128 25
97 130 25
96 129 25
96 129 25
97 130 25
95 128 25
97 130 25
97 130 25
94 128 25
98 130 25
96 129 25
99 131 25
97 130 25
10 26 13
9 24 12
10 26 13
8 22 11
8 21 11
9 24 12
10 26 13
8 22 11
10 26 13
9 24 12
9 23 12
9 24 12
9 24 12
10 26 13
7 19 10
9 24 12
9 24 12
9 25 12
9 23 12
9 25 12
10 26 13
10 26 13
20 37 14
87 118 24
100 132 25
99 131 25
99 131 25
96 129 25
96 129 25
100 131 25
100 131 25
98 130 25
98 130 25
97 129 25
97 129 25
96 129 25
99 131 25
101 132 25
99 131 25
97 130 25
101 132 25
97 129 25
99 131 25
98 130 25
102 133 25
36 57 17
10 26 13
9 24 12
8 22 11
9 24 12
8 22 11
9 24 12
7 20 10
8 22 11
8 22 11
8 21 10
10 27 13
10 26 13
9 24 12
8 22 11
6 18 10
8 21 11
9 24 12
10 26 13
9 24 12
10 26 13
11 27 13
64 89 20
101 132 25
95 128 25
97 130 25
98 130 25
101 132 25
96 129 25
97 129 25
101 132 25
101 132 25
98 130 25
100 131 25
97 129 25
101 132 25
97 130 25
103 133 25
100 131 25
97 129 25
97 129 25
95 129 25
95 128 25
95 128 25
96 129 25
101 132 25
38 58 17
9 24 12
9 24 12
6 18 10
9 24 12
7 19 10
9 24 12
8 22 11
8 22 11
9 24 12
6 16 9
7 19 10
9 24 12
6 17 8
8 22 11
8 22 11
7 20 10
9 24 12
6 16 9
10 27 13
36 57 17
95 128 25
99 131 25
97 130 25
96 129 25
99 131 25
98 130 25
98 130 25
98 130 25
96 129 25
99 131 25
100 132 25
101 132 25
96 129 25
95 129 25
96 129 25
100 131 25
96 129 25
101 132 25
97 130 25
97 130 25
94 128 25
101 132 25
99 131 25
100 131 25
93 127 25
80 108 22
8 22 11
8 20 10
8 22 11
7 20 10
8 21 10
6 15 8
8 22 10
7 18 9
8 22 11
7 19 9
5 15 8
9 22 10
9 23 11
7 20 10
9 24 12
8 22 11
8 22 11
63 87 20
90 120 24
95 129 25
99 131 25
99 131 25
97 130 25
97 130 25
98 130 25
101 132 25
97 130 25
100 131 25
100 131 25
100 131 25
95 129 25
96 129 25
94 128 25
97 130 25
96 129 25
100 131 25
98 130 25
101 132 25
100 131 25
100 132 25
102 132 25
99 131 25
100 132 25
99 131 25
95 128 25
71 99 22
8 22 11
5 15 8
5 14 7
6 17 9
9 22 11
7 18 10
6 18 8
5 15 8
5 15 7
6 15 8
3 8 4
7 20 9
7 19 9
8 21 11
8 20 10
30 49 15
97 130 25
95 129 25
98 130 25
99 131 25
102 132 25
91 121 24
100 131 25
93 127 25
99 131 25
98 130 25
102 133 25
98 130 25
97 130 25
97 130 25
100 132 25
97 130 25
102 132 25
97 130 25
96 129 25
96 129 25
99 131 25
98 130 25
96 129 25
102 132 25
96 129 25
99 131 25
99 131 25
97 130 25
98 130 25
62 88 20
27 45 14
5 16 9
5 15 7
6 17 8
5 15 7
6 16 8
5 15 7
6 17 8
4 11 6
5 13 7
7 19 10
8 22 11
44 62 15
80 109 23
99 131 25
100 131 25
97 130 25
96 129 25
99 131 25
99 131 25
100 132 25
97 130 25
98 130 25
97 130 25
97 130 25
99 131 25
102 132 25
102 133 25
98 130 25
100 132 25
101 132 25
98 130 25
94 128 25
99 131 25
99 131 25
99 131 25
91 121 24
84 116 23
99 131 25
100 131 25
94 128 25
99 131 25
100 131 25
98 130 25
98 130 25
97 130 25
71 99 22
34 51 14
7 20 9
6 18 10
5 16 8
4 11 5
5 15 7
6 17 8
33 51 14
35 50 12
49 70 18
93 122 24
100 131 25
100 131 25
94 128 25
90 120 24
98 130 25
98 130 25
100 131 25
97 130 25
100 131 25
97 129 25
100 131 25
95 128 25
94 128 25
100 132 25
99 131 25
98 130 25
93 127 25
97 130 25
99 131 25
95 128 25
96 129 25
88 118 23
100 131 25
103 133 25
95 129 25
97 130 25
97 129 25
99 131 25
98 130 25
97 130 25
97 129 25
91 121 24
99 131 25
97 129 25
97 130 25
99 131 25
80 107 22
53 77 19
60 85 19
70 97 21
88 117 24
99 131 25
97 130 25
99 131 25
97 130 25
96 129 25
101 132 25
89 119 23
94 123 24
100 131 25
89 120 24
94 128 25
96 129 25
98 130 25
94 122 24
93 127 25
98 130 25
100 131 25
99 131 25
102 132 25
98 130 25
103 133 25
98 130 25
99 131 25
100 131 25
96 129 25
103 133 25
98 130 25
98 130 25
102 133 25
97 130 25
94 122 23
96 129 25
95 129 25
86 118 24
98 130 25
102 132 25
99 131 25
79 107 21
92 121 23
91 121 24
99 131 25
85 117 24
101 132 25
80 108 21
95 128 25
82 110 23
89 119 23
96 129 25
98 130 25
96 129 25
88 119 24
79 109 23
97 130 25
99 131 25
88 119 24
97 130 25
98 130 25
87 118 24
91 121 24
95 129 25
98 130 25
95 128 25
100 131 25
95 128 25
97 130 25
