P3
45 30
255
176 208 255
176 208 255
176 208 255
176 208 255
176 208 255
176 208 255
176 207 255
176 208 255
176 207 255
176 207 255
176 207 255
176 207 255
176 207 255
175 207 255
175 207 255
175 207 255
175 207 255
175 207 255
175 207 255
175 207 255
175 207 255
175 207 255
175 207 255
175 207 255
175 207 255
175 207 255
175 207 255
175 207 255
175 207 255
175 207 255
175 207 255
175 207 255
176 207 255
175 207 255
176 207 255
176 207 255
176 207 255
176 207 255
176 208 255
176 208 255
176 208 255
176 208 255
176 208 255
176 208 255
176 208 255
177 208 255
177 208 255
177 208 255
177 208 255
177 208 255
177 208 255
177 208 255
177 208 255
177 208 255
176 208 255
177 208 255
176 208 255
177 208 255
177 208 255
177 208 255
177 208 255
176 208 255
176 208 255
176 208 255
176 208 255
176 208 255
176 208 255
176 208 255
176 208 255
176 208 255
176 208 255
176 208 255
176 208 255
176 208 255
176 208 255
176 208 255
176 208 255
177 208 255
177 208 255
177 208 255
177 208 255
177 208 255
177 208 255
177 208 255
177 208 255
177 208 255
177 208 255
177 208 255
177 208 255
177 208 255
178 209 255
178 209 255
178 209 255
178 209 255
178 209 255
178 209 255
178 209 255
178 209 255
178 209 255
178 209 255
178 209 255
178 209 255
177 208 255
178 209 255
177 208 255
177 208 255
177 208 255
177 208 255
177 208 255
177 208 255
177 208 255
177 208 255
177 208 255
177 208 255
177 208 255
177 208 255
177 208 255
177 208 255
177 208 255
177 208 255
178 209 255
177 208 255
178 209 255
178 209 255
178 209 255
178 209 255
178 209 255
178 209 255
178 209 255
178 209 255
178 209 255
178 209 255
178 209 255
178 209 255
178 209 255
179 210 255
179 210 255
179 210 255
179 209 255
179 209 255
179 209 255
179 209 255
179 209 255
179 209 255
179 209 255
179 209 255
179 209 255
179 209 255
178 209 255
179 209 255
178 209 255
178 209 255
178 209 255
179 209 255
178 209 255
178 209 255
179 209 255
178 209 255
178 209 255
178 209 255
179 209 255
179 209 255
178 209 255
179 209 255
179 209 255
179 209 255
179 209 255
179 209 255
179 209 255
179 209 255
179 209 255
179 209 255
179 209 255
179 209 255
179 209 255
179 209 255
179 209 255
179 209 255
179 210 255
179 210 255
180 210 255
180 210 255
180 210 255
180 210 255
180 210 255
180 210 255
180 210 255
180 210 255
180 210 255
180 210 255
180 210 255
180 210 255
180 210 255
180 210 255
180 210 255
180 210 255
180 210 255
179 210 255
180 210 255
180 210 255
180 210 255
179 210 255
179 210 255
180 210 255
179 210 255
179 210 255
180 210 255
180 210 255
180 210 255
180 210 255
179 210 255
179 210 255
180 210 255
180 210 255
180 210 255
180 210 255
180 210 255
180 210 255
180 210 255
180 210 255
180 210 255
180 210 255
180 210 255
180 210 255
180 210 255
181 211 255
181 211 255
181 211 255
181 211 255
181 211 255
181 211 255
181 211 255
181 211 255
181 211 255
181 210 255
181 211 255
181 211 255
181 211 255
181 210 255
181 210 255
181 210 255
181 210 255
181 210 255
181 210 255
181 210 255
181 210 255
181 210 255
180 210 255
181 210 255
181 210 255
181 210 255
180 210 255
181 210 255
181 210 255
181 210 255
181 210 255
181 210 255
181 211 255
181 211 255
181 210 255
181 211 255
181 211 255
181 211 255
181 211 255
181 211 255
181 211 255
181 211 255
181 211 255
181 211 255
181 211 255
182 211 255
182 211 255
182 211 255
182 211 255
182 211 255
182 211 255
182 211 255
182 211 255
182 211 255
182 211 255
182 211 255
182 211 255
182 211 255
182 211 255
182 211 255
182 211 255
182 211 255
182 211 255
182 211 255
182 211 255
182 211 255
182 211 255
182 211 255
182 211 255
182 211 255
182 211 255
182 211 255
182 211 255
182 211 255
182 211 255
182 211 255
182 211 255
182 211 255
182 211 255
182 211 255
182 211 255
182 211 255
182 211 255
182 211 255
182 211 255
182 211 255
182 211 255
182 211 255
182 211 255
182 211 255
183 212 255
183 212 255
183 212 255
183 212 255
183 212 255
183 212 255
183 212 255
183 212 255
183 212 255
183 212 255
183 212 255
183 212 255
183 212 255
183 212 255
183 212 255
183 212 255
183 212 255
183 212 255
183 212 255
183 212 255
183 212 255
183 212 255
183 212 255
183 212 255
183 212 255
183 212 255
183 212 255
183 212 255
183 212 255
183 212 255
183 212 255
183 212 255
183 212 255
183 212 255
183 212 255
183 212 255
183 212 255
183 212 255
183 212 255
183 212 255
183 212 255
183 212 255
183 212 255
183 212 255
183 212 255
184 213 255
184 213 255
184 213 255
184 213 255
184 213 255
184 213 255
184 213 255
184 212 255
184 212 255
184 212 255
184 212 255
184 212 255
184 212 255
184 212 255
184 212 255
184 212 255
184 212 255
184 212 255
184 212 255
184 212 255
184 212 255
184 212 255
184 212 255
184 212 255
184 212 255
184 212 255
184 212 255
184 212 255
184 212 255
184 212 255
184 212 255
184 212 255
184 212 255
184 212 255
184 212 255
184 213 255
184 212 255
184 213 255
184 213 255
184 213 255
184 213 255
184 213 255
184 213 255
184 213 255
184 213 255
185 213 255
185 213 255
185 213 255
185 213 255
185 213 255
185 213 255
185 213 255
185 213 255
185 213 255
185 213 255
185 213 255
185 213 255
185 213 255
185 213 255
185 213 255
185 213 255
185 213 255
185 213 255
185 213 255
185 213 255
185 213 255
185 213 255
185 213 255
185 213 255
185 213 255
185 213 255
185 213 255
185 213 255
185 213 255
185 213 255
185 213 255
185 213 255
185 213 255
185 213 255
185 213 255
185 213 255
185 213 255
185 213 255
185 213 255
185 213 255
185 213 255
185 213 255
185 213 255
185 213 255
185 213 255
186 214 255
187 214 255
187 214 255
186 214 255
186 214 255
186 214 255
186 214 255
186 214 255
186 214 255
186 214 255
186 214 255
186 214 255
186 214 255
186 214 255
186 214 255
186 214 255
186 214 255
186 214 255
186 214 255
186 214 255
186 214 255
186 214 255
186 214 255
186 214 255
186 214 255
186 214 255
186 214 255
186 214 255
186 214 255
186 214 255
186 214 255
186 214 255
186 214 255
186 214 255
186 214 255
186 214 255
186 214 255
186 214 255
186 214 255
186 214 255
186 214 255
186 214 255
186 214 255
186 214 255
187 214 255
188 215 255
187 214 255
188 215 255
187 214 255
187 214 255
187 214 255
187 214 255
187 214 255
187 214 255
187 214 255
187 214 255
187 214 255
187 214 255
187 214 255
187 214 255
187 214 255
187 214 255
187 214 255
187 214 255
187 214 255
187 214 255
187 214 255
187 214 255
187 214 255
187 214 255
187 214 255
187 214 255
187 214 255
187 214 255
187 214 255
187 214 255
187 214 255
187 214 255
187 214 255
187 214 255
188 215 255
187 214 255
187 214 255
188 215 255
187 214 255
187 214 255
187 214 255
187 214 255
187 214 255
187 214 255
189 215 255
189 215 255
188 215 255
188 215 255
188 215 255
188 215 255
188 215 255
188 215 255
189 215 255
189 215 255
188 215 255
188 215 255
188 215 255
189 215 255
188 215 255
188 215 255
188 215 255
188 215 255
188 215 255
189 215 255
188 215 255
188 215 255
188 215 255
188 215 255
188 215 255
188 215 255
188 215 255
189 215 255
188 215 255
189 215 255
189 215 255
188 215 255
189 215 255
189 215 255
188 215 255
189 215 255
189 215 255
189 215 255
188 215 255
189 215 255
188 215 255
189 215 255
189 215 255
189 215 255
189 215 255
190 216 255
190 216 255
190 216 255
190 216 255
190 216 255
190 216 255
190 216 255
190 216 255
189 216 255
190 216 255
190 216 255
189 216 255
190 216 255
190 216 255
190 216 255
190 216 255
190 216 255
189 216 255
190 216 255
189 216 255
189 216 255
190 216 255
190 216 255
190 216 255
190 216 255
189 216 255
190 216 255
190 216 255
190 216 255
190 216 255
190 216 255
190 216 255
190 216 255
189 216 255
190 216 255
190 216 255
189 216 255
190 216 255
190 216 255
190 216 255
190 216 255
190 216 255
190 216 255
190 216 255
190 216 255
191 216 255
191 216 255
191 216 255
191 216 255
191 216 255
191 216 255
191 217 255
191 216 255
191 217 255
191 216 255
191 216 255
191 217 255
191 217 255
191 216 255
191 216 255
191 217 255
191 216 255
191 216 255
191 216 255
191 216 255
191 216 255
191 216 255
191 216 255
191 216 255
191 216 255
191 216 255
191 216 255
191 216 255
191 217 255
191 216 255
191 216 255
191 216 255
191 216 255
191 216 255
191 216 255
191 216 255
191 217 255
191 216 255
191 216 255
191 216 255
191 216 255
191 216 255
191 216 255
191 216 255
191 216 255
192 217 255
192 217 255
192 217 255
192 217 255
192 217 255
192 217 255
192 217 255
192 217 255
192 217 255
192 217 255
192 217 255
192 217 255
192 217 255
192 217 255
192 217 255
192 217 255
192 217 255
192 217 255
192 217 255
192 217 255
192 217 255
192 217 255
192 217 255
192 217 255
192 217 255
192 217 255
192 217 255
192 217 255
192 217 255
192 217 255
192 217 255
192 217 255
192 217 255
192 217 255
192 217 255
192 217 255
192 217 255
192 217 255
192 217 255
192 217 255
192 217 255
192 217 255
192 217 255
192 217 255
192 217 255
193 218 255
193 218 255
193 218 255
193 218 255
193 218 255
193 218 255
193 218 255
193 218 255
193 218 255
193 218 255
193 218 255
193 218 255
193 218 255
193 218 255
193 218 255
193 218 255
193 218 255
193 218 255
193 218 255
193 218 255
193 218 255
193 218 255
193 218 255
193 218 255
193 218 255
193 218 255
193 218 255
193 218 255
193 218 255
193 218 255
193 218 255
193 218 255
193 218 255
193 218 255
193 218 255
193 218 255
193 218 255
193 218 255
193 218 255
193 218 255
193 218 255
193 218 255
193 218 255
193 218 255
193 218 255
165 192 186
157 184 163
165 192 186
164 191 186
144 173 140
154 182 163
164 191 186
147 175 140
166 192 186
184 209 232
154 182 163
145 174 140
174 200 209
117 148 71
169 194 186
145 174 140
184 209 232
135 165 117
146 174 140
148 175 140
147 175 140
125 156 94
146 174 140
154 182 163
138 167 117
146 174 140
167 193 186
136 165 117
144 173 140
127 157 94
146 174 140
153 182 163
154 182 163
155 183 163
148 175 140
146 174 140
173 200 209
173 200 209
144 173 140
155 183 163
176 202 209
175 201 209
136 165 117
174 200 209
174 201 209
101 132 25
95 128 25
99 131 25
99 131 25
101 132 25
95 128 25
101 132 25
97 130 25
98 130 25
100 131 25
102 133 25
105 135 25
101 132 25
96 129 25
98 130 25
98 130 25
96 129 25
97 129 25
96 129 25
100 131 25
98 130 25
96 129 25
99 131 25
100 131 25
99 131 25
95 128 25
99 131 25
99 131 25
94 128 25
96 129 25
96 129 25
97 130 25
98 130 25
94 128 25
102 132 25
99 131 25
97 130 25
95 129 25
99 131 25
97 130 25
96 129 25
99 131 25
97 129 25
97 130 25
102 132 25
99 131 25
96 129 25
102 132 25
96 129 25
98 130 25
98 130 25
102 132 25
100 131 25
101 132 25
98 130 25
98 130 25
97 130 25
99 131 25
99 131 25
98 130 25
97 129 25
100 132 25
98 130 25
100 131 25
101 132 25
99 131 25
97 129 25
103 133 25
96 129 25
97 130 25
101 132 25
95 128 25
96 129 25
97 130 25
98 130 25
95 128 25
97 130 25
99 131 25
96 129 25
100 132 25
99 131 25
101 132 25
98 130 25
99 131 25
97 129 25
96 129 25
96 129 25
95 128 25
96 129 25
101 132 25
94 128 25
96 129 25
102 132 25
97 130 25
98 130 25
98 130 25
98 130 25
97 130 25
100 131 25
104 134 25
97 130 25
100 131 25
98 130 25
99 131 25
96 129 25
94 128 25
97 130 25
94 128 25
97 130 25
96 129 25
101 132 25
102 132 25
95 129 25
96 129 25
96 129 25
99 131 25
97 129 25
103 133 25
98 130 25
96 129 25
98 130 25
98 130 25
101 132 25
103 133 25
99 131 25
99 131 25
97 130 25
96 129 25
97 130 25
100 131 25
95 128 25
96 129 25
99 131 25
98 130 25
100 131 25
96 129 25
101 132 25
101 132 25
98 130 25
95 128 25
94 128 25
99 131 25
96 129 25
101 132 25
98 130 25
102 133 25
100 131 25
99 131 25
102 133 25
98 130 25
98 130 25
97 129 25
99 131 25
96 129 25
96 129 25
101 132 25
100 131 25
97 129 25
102 133 25
97 130 25
99 131 25
98 130 25
101 132 25
105 134 25
98 130 25
102 133 25
96 129 25
96 129 25
96 129 25
103 133 25
98 130 25
97 130 25
100 131 25
96 129 25
101 132 25
99 131 25
98 130 25
98 130 25
98 130 25
102 133 25
97 130 25
94 128 25
100 131 25
95 128 25
98 130 25
97 130 25
98 130 25
96 129 25
102 133 25
98 130 25
98 130 25
99 131 25
97 129 25
97 129 25
101 132 25
96 129 25
101 132 25
99 131 25
95 129 25
98 130 25
98 130 25
100 131 25
103 133 25
98 130 25
97 129 25
98 130 25
99 131 25
97 129 25
100 131 25
97 130 25
101 132 25
99 131 25
94 128 25
101 132 25
101 132 25
99 131 25
99 131 25
99 131 25
96 129 25
96 129 25
101 132 25
101 132 25
96 129 25
98 130 25
99 131 25
98 130 25
97 130 25
96 129 25
99 131 25
103 133 25
100 131 25
97 130 25
99 131 25
103 133 25
98 130 25
101 132 25
103 133 25
104 134 25
97 129 25
98 130 25
97 130 25
95 128 25
99 131 25
97 129 25
97 130 25
98 130 25
97 130 25
95 129 25
98 130 25
94 128 25
98 130 25
101 132 25
97 130 25
98 130 25
106 135 25
96 129 25
97 130 25
98 130 25
101 132 25
99 131 25
98 130 25
99 131 25
97 130 25
95 129 25
94 128 25
100 131 25
98 130 25
96 129 25
100 132 25
97 129 25
98 130 25
99 131 25
101 132 25
100 131 25
100 131 25
101 132 25
97 130 25
95 129 25
97 130 25
98 130 25
99 131 25
101 132 25
95 128 25
98 130 25
97 130 25
97 129 25
100 132 25
99 131 25
98 130 25
95 129 25
101 132 25
103 133 25
100 131 25
100 131 25
101 132 25
96 129 25
95 128 25
96 129 25
98 130 25
94 128 25
95 128 25
97 129 25
95 129 25
102 133 25
100 131 25
97 129 25
98 130 25
96 129 25
100 131 25
101 132 25
95 129 25
96 129 25
100 131 25
99 131 25
97 129 25
97 130 25
96 129 25
100 132 25
97 130 25
98 130 25
100 132 25
97 129 25
95 128 25
101 132 25
95 128 25
100 131 25
102 133 25
97 129 25
99 131 25
96 129 25
98 130 25
98 130 25
96 129 25
96 129 25
99 131 25
99 131 25
99 131 25
97 130 25
93 127 25
97 130 25
98 130 25
99 131 25
95 128 25
99 131 25
98 130 25
101 132 25
102 133 25
101 132 25
101 132 25
98 130 25
101 132 25
98 130 25
99 131 25
97 129 25
100 132 25
101 132 25
97 130 25
103 133 25
101 132 25
97 129 25
96 129 25
98 130 25
98 130 25
95 128 25
99 131 25
104 134 25
96 129 25
98 130 25
97 130 25
100 131 25
96 129 25
107 136 25
99 131 25
95 129 25
100 132 25
99 131 25
98 130 25
96 129 25
99 131 25
101 132 25
98 130 25
96 129 25
96 129 25
99 131 25
94 128 25
97 129 25
97 130 25
98 130 25
100 132 25
97 130 25
102 132 25
95 128 25
101 132 25
100 132 25
96 129 25
100 132 25
104 134 25
104 134 25
102 133 25
98 130 25
95 129 25
94 128 25
99 131 25
97 130 25
98 130 25
96 129 25
97 130 25
96 129 25
96 129 25
100 132 25
97 130 25
98 130 25
99 131 25
96 129 25
98 130 25
100 132 25
100 132 25
97 129 25
99 131 25
101 132 25
96 129 25
96 129 25
98 130 25
100 131 25
99 131 25
96 129 25
101 132 25
95 128 25
101 132 25
97 129 25
98 130 25
94 128 25
94 128 25
103 133 25
104 134 25
97 129 25
100 132 25
99 131 25
96 129 25
96 129 25
94 128 25
97 130 25
98 130 25
96 129 25
97 130 25
98 130 25
96 129 25
99 131 25
100 131 25
101 132 25
95 128 25
105 134 25
98 130 25
94 128 25
101 132 25
100 131 25
95 128 25
96 129 25
97 130 25
102 133 25
97 130 25
101 132 25
99 131 25
100 132 25
101 132 25
98 130 25
96 129 25
102 133 25
101 132 25
99 131 25
96 129 25
102 132 25
101 132 25
98 130 25
99 131 25
99 131 25
98 130 25
102 133 25
94 128 25
98 130 25
99 131 25
98 130 25
98 130 25
97 129 25
103 133 25
100 131 25
100 132 25
95 128 25
99 131 25
101 132 25
98 130 25
98 130 25
97 129 25
96 129 25
99 131 25
95 129 25
100 131 25
98 130 25
99 131 25
102 133 25
101 132 25
96 129 25
105 134 25
104 134 25
102 133 25
96 129 25
97 130 25
95 129 25
96 129 25
98 130 25
98 130 25
96 129 25
98 130 25
101 132 25
98 130 25
94 128 25
99 131 25
98 130 25
93 127 25
95 128 25
96 129 25
93 127 25
97 130 25
99 131 25
97 130 25
104 134 25
99 131 25
99 131 25
95 129 25
102 132 25
99 131 25
99 131 25
98 130 25
96 129 25
101 132 25
101 132 25
104 134 25
98 130 25
100 131 25
99 131 25
